<?xml version="1.0" standalone="no"?>
<!DOCTYPE svg PUBLIC "-//W3C//DTD SVG 20010904//EN"
 "http://www.w3.org/TR/2001/REC-SVG-20010904/DTD/svg10.dtd">
<svg version="1.0" xmlns="http://www.w3.org/2000/svg"
 width="704.000000pt" height="282.000000pt" viewBox="0 0 704.000000 282.000000"
 preserveAspectRatio="xMidYMid meet">

<g transform="translate(0.000000,282.000000) scale(0.100000,-0.100000)"
fill="#000000" stroke="none">
<path d="M252 2467 l-22 -23 0 -1045 0 -1046 23 -21 c22 -21 32 -22 203 -22
l179 0 21 33 c12 17 192 301 400 629 l379 597 3 -617 2 -616 22 -23 c21 -22
27 -23 199 -23 197 0 182 -5 227 81 16 30 204 329 418 664 215 336 473 741
574 900 101 160 219 345 262 412 l78 123 -273 0 -272 -1 -395 -620 c-216 -341
-398 -623 -402 -625 -4 -3 -8 269 -8 604 0 580 -1 610 -19 626 -16 14 -41 16
-202 14 l-183 -3 -143 -225 c-79 -124 -188 -295 -242 -380 -54 -85 -169 -267
-257 -404 l-159 -250 -3 624 c-2 563 -4 625 -19 642 -14 16 -35 18 -193 18
-172 0 -177 -1 -198 -23z"/>
<path d="M3509 2473 c-8 -10 -22 -34 -31 -53 -8 -19 -85 -143 -170 -275 -85
-132 -347 -544 -583 -915 -235 -371 -463 -730 -506 -797 l-78 -123 272 0 272
1 394 620 c217 341 398 622 403 625 4 3 8 -269 8 -604 0 -580 1 -610 19 -626
16 -14 41 -16 202 -14 l183 3 401 629 400 630 3 -624 c2 -563 4 -625 19 -642
14 -16 35 -18 193 -18 172 0 177 1 198 23 l22 23 0 1045 0 1046 -23 21 c-22
21 -32 22 -203 22 l-179 0 -21 -33 c-12 -17 -112 -176 -224 -352 -111 -176
-226 -356 -254 -400 -29 -44 -108 -169 -176 -277 l-125 -197 -3 617 -2 616
-22 23 c-21 22 -27 23 -198 23 -156 0 -179 -2 -191 -17z"/>
<path d="M5367 2462 c-16 -17 -17 -106 -17 -1074 0 -1009 1 -1056 18 -1071 16
-15 45 -17 194 -17 170 0 175 1 196 23 22 23 22 26 22 435 l0 412 413 0 414 0
21 23 c21 22 22 32 22 199 0 157 -2 177 -18 191 -17 15 -62 17 -435 17 l-417
0 0 225 0 225 503 0 504 0 21 23 c21 22 22 33 22 193 0 165 -1 171 -23 192
l-23 22 -701 0 c-665 0 -701 -1 -716 -18z"/>
</g>
</svg>
